<svg width="25" height="36" viewBox="0 0 25 36" fill="none" xmlns="http://www.w3.org/2000/svg">
<g filter="url(#filter0_dii_1161_2)">
<path fill-rule="evenodd" clip-rule="evenodd" d="M12.7819 0.0228161C12.7827 0.12982 12.8842 0.545297 13.0074 0.946197C13.7029 3.20931 14 5.72069 13.7837 7.50637C13.4861 9.96264 12.6667 11.4856 10.2145 14.1394C8.41133 16.0907 7.80313 16.9004 7.24581 18.0914C6.07708 20.589 6.11629 23.6139 7.36841 27.5471L7.76158 28.7819L8.09498 27.7658C8.95087 25.1573 10.1206 23.5151 13.8022 19.7538C17.8938 15.5736 19.0553 13.9555 19.4995 11.8164C19.7402 10.6567 19.5868 8.58982 19.1739 7.43348L18.8357 6.4859L18.7424 7.59894C18.4968 10.5305 17.5599 11.9036 12.837 16.2533C10.4383 18.4623 9.30876 19.8386 8.52941 21.5014C8.29237 22.007 8.26744 22.0264 8.34194 21.6472C8.47489 20.9702 9.05583 19.6064 9.57919 18.7429C10.1938 17.7289 11.5727 16.0772 13.6194 13.9038C14.5218 12.9455 15.5313 11.8027 15.8627 11.3645C16.6976 10.2603 17.4088 8.72379 17.5285 7.76542C17.7962 5.6236 16.4392 3.10537 13.6914 0.644429C13.1903 0.195567 12.781 -0.0841876 12.7819 0.0228161ZM3.05196 12.8274C2.87265 13.0367 2.62191 13.119 2.16211 13.119C1.46207 13.119 0.37158 14.1138 0.0804539 14.58C-0.161544 14.9673 0.168109 14.5762 0.725432 14.58C1.39734 14.5846 2.31635 15.0465 2.98592 15.7161C3.7625 16.4926 4.69492 18.4224 5.09392 20.0783C5.27236 20.8189 5.45575 21.4257 5.50153 21.4268C5.5473 21.4276 5.60008 21.084 5.61859 20.6632C5.67618 19.3605 6.07066 17.9156 6.76269 16.4738C7.33007 15.2917 7.61376 14.9055 8.71733 13.8133L10.0084 12.5358H6.65495C3.48202 12.5358 3.28813 12.5516 3.05196 12.8274Z" fill="#FFF700"/>
<path d="M18.7165 7.36075C18.5933 6.95985 18.4919 6.54437 18.491 6.43737C18.4901 6.33036 18.8995 6.61012 19.4005 7.05898C22.1484 9.51992 23.5053 12.0382 23.2377 14.18C23.118 15.1383 22.4067 16.6749 21.5718 17.779C21.2405 18.2172 20.2309 19.36 19.3285 20.3184C17.2819 22.4917 16.4946 23.0114 15.2883 25.1575C13.5514 28.2478 13.2105 33.2847 13.0776 33.9617C11.8254 30.0285 11.7862 27.0035 12.955 24.506C13.5123 23.3149 14.1205 22.5053 15.9237 20.554C18.3758 17.9002 19.1953 16.3772 19.4928 13.9209C19.7092 12.1352 19.4121 9.62386 18.7165 7.36075Z" fill="#FFF700"/>
</g>
<defs>
<filter id="filter0_dii_1161_2" x="-0.291563" y="-0.583126" width="24.7288" height="36.0029" filterUnits="userSpaceOnUse" color-interpolation-filters="sRGB">
<feFlood flood-opacity="0" result="BackgroundImageFix"/>
<feColorMatrix in="SourceAlpha" type="matrix" values="0 0 0 0 0 0 0 0 0 0 0 0 0 0 0 0 0 0 127 0" result="hardAlpha"/>
<feOffset dx="0.583126" dy="0.87469"/>
<feGaussianBlur stdDeviation="0.291563"/>
<feComposite in2="hardAlpha" operator="out"/>
<feColorMatrix type="matrix" values="0 0 0 0 0 0 0 0 0 0 0 0 0 0 0 0 0 0 0.25 0"/>
<feBlend mode="normal" in2="BackgroundImageFix" result="effect1_dropShadow_1161_2"/>
<feBlend mode="normal" in="SourceGraphic" in2="effect1_dropShadow_1161_2" result="shape"/>
<feColorMatrix in="SourceAlpha" type="matrix" values="0 0 0 0 0 0 0 0 0 0 0 0 0 0 0 0 0 0 127 0" result="hardAlpha"/>
<feOffset dx="-0.291563" dy="-0.728908"/>
<feGaussianBlur stdDeviation="0.291563"/>
<feComposite in2="hardAlpha" operator="arithmetic" k2="-1" k3="1"/>
<feColorMatrix type="matrix" values="0 0 0 0 0 0 0 0 0 0 0 0 0 0 0 0 0 0 0.25 0"/>
<feBlend mode="normal" in2="shape" result="effect2_innerShadow_1161_2"/>
<feColorMatrix in="SourceAlpha" type="matrix" values="0 0 0 0 0 0 0 0 0 0 0 0 0 0 0 0 0 0 127 0" result="hardAlpha"/>
<feOffset dx="1.16625" dy="0.291563"/>
<feGaussianBlur stdDeviation="0.437345"/>
<feComposite in2="hardAlpha" operator="arithmetic" k2="-1" k3="1"/>
<feColorMatrix type="matrix" values="0 0 0 0 0 0 0 0 0 0 0 0 0 0 0 0 0 0 0.25 0"/>
<feBlend mode="normal" in2="effect2_innerShadow_1161_2" result="effect3_innerShadow_1161_2"/>
</filter>
</defs>
</svg>
